# xmcd
#
# Track frame offsets: 
#        150
#        12857
#        28881
#        47493
#        67317
#        87032
#        105029
#        125884
#        138411
#        155730
#        168956
#        183871
#
# Disc length: 2721 seconds
#
# Revision: 0
# Processed by: cddbd v1.5.2PL0 Copyright (c) Steve Scherf et al.
# Submitted via: ExactAudioCopy v0.99pb5
#
DISCID=9a0a9f0c
DTITLE=Amy Winehouse - Lioness Hidden Treasures
DYEAR=2011
DGENRE=Soul
TTITLE0=Our Day Will Come
TTITLE1=Between The Cheats
TTITLE2=Tears Dry (Original Version)
TTITLE3=Wake Up Alone (Original Recording)
TTITLE4=Will You Still Love Me Tomorrow (2011)
TTITLE5=Valerie ('68 Version)
TTITLE6=Like Smoke (feat. Nas)
TTITLE7=The Girl From Ipanema
TTITLE8=Half Time
TTITLE9=Best Friends, Right?
TTITLE10=Body And Soul (with Tony Bennett)
TTITLE11=A Song For You
EXTD=
EXTT0=
EXTT1=
EXTT2=
EXTT3=
EXTT4=
EXTT5=
EXTT6=
EXTT7=
EXTT8=
EXTT9=
EXTT10=
EXTT11=
PLAYORDER=
